<svg width="100" height="100" viewBox="0 0 100 100" xmlns="http://www.w3.org/2000/svg">
    <!-- Перший кубик (великий) -->
    <rect x="35" y="40" width="25" height="25" rx="3" transform="rotate(15 47.5 52.5)" fill="#B3E5FC" opacity="0.9"/>

    <!-- Другий кубик (середній) -->
    <rect x="55" y="50" width="20" height="20" rx="2" transform="rotate(-10 65 60)" fill="#81D4FA" opacity="0.8"/>

    <!-- Третій кубик (маленький) -->
    <rect x="45" y="65" width="15" height="15" rx="2" transform="rotate(5 52.5 72.5)" fill="#4FC3F7" opacity="0.7"/>

    <!-- Блиски на кубиках -->
    <rect x="38" y="43" width="8" height="4" rx="1" transform="rotate(15 42 45)" fill="#FFFFFF" opacity="0.7"/>
    <rect x="58" y="53" width="6" height="3" rx="1" transform="rotate(-10 61 54.5)" fill="#FFFFFF" opacity="0.7"/>
    <rect x="48" y="68" width="4" height="2" rx="1" transform="rotate(5 50 69)" fill="#FFFFFF" opacity="0.7"/>

    <!-- Краплі води -->
    <ellipse cx="40" cy="70" rx="1.5" ry="2.5" fill="#29B6F6" opacity="0.6"/>
    <ellipse cx="65" cy="45" rx="2" ry="3" fill="#29B6F6" opacity="0.6"/>
    <ellipse cx="55" cy="75" rx="1" ry="2" fill="#29B6F6" opacity="0.6"/>
</svg>