<svg width="100" height="100" viewBox="0 0 100 100" xmlns="http://www.w3.org/2000/svg">
    <!-- Основа лайма -->
    <circle cx="50" cy="50" r="45" fill="#7CFF00" stroke="#000" stroke-width="3"/>

    <!-- Біле кільце -->
    <circle cx="50" cy="50" r="35" fill="#FFFFFF" stroke="#000" stroke-width="2"/>

    <!-- Сегменти (рівне коло) -->
    <g fill="#66E600" stroke="#000" stroke-width="1.5">
        <!-- 0-45 градусів -->
        <path d="M50 50 L50 15 A35 35 0 0 1 74.7 24.7 Z"/>
        <!-- 45-90 градусів -->
        <path d="M50 50 L74.7 24.7 A35 35 0 0 1 85 50 Z"/>
        <!-- 90-135 градусів -->
        <path d="M50 50 L85 50 A35 35 0 0 1 74.7 75.3 Z"/>
        <!-- 135-180 градусів -->
        <path d="M50 50 L74.7 75.3 A35 35 0 0 1 50 85 Z"/>
        <!-- 180-225 градусів -->
        <path d="M50 50 L50 85 A35 35 0 0 1 25.3 75.3 Z"/>
        <!-- 225-270 градусів -->
        <path d="M50 50 L25.3 75.3 A35 35 0 0 1 15 50 Z"/>
        <!-- 270-315 градусів -->
        <path d="M50 50 L15 50 A35 35 0 0 1 25.3 24.7 Z"/>
        <!-- 315-360 градусів -->
        <path d="M50 50 L25.3 24.7 A35 35 0 0 1 50 15 Z"/>
    </g>

    <!-- Центр -->
    <circle cx="50" cy="50" r="8" fill="#FFFFFF" stroke="#000" stroke-width="2"/>
</svg>