<svg width="100" height="100" viewBox="0 0 100 100" xmlns="http://www.w3.org/2000/svg">
    <!-- Leaf body (перевернуто на 180°) -->
    <path
            d="M50 92
       C68 84, 78 66, 74 48
       C70 30, 58 14, 50 8
       C42 14, 30 30, 26 48
       C22 66, 32 84, 50 92 Z"
            fill="#3CB371"
            stroke="#1F7A4F"
            stroke-width="3"/>

    <!-- Center vein (перевернута) -->
    <path
            d="M50 86 L50 12"
            stroke="#1F7A4F"
            stroke-width="2"
            stroke-linecap="round"/>

    <!-- Side veins (перевернуті) -->
    <g stroke="#1F7A4F" stroke-width="1.4" stroke-linecap="round">
        <!-- Ліві жилки -->
        <path d="M50 74 C43 70, 38 66, 34 60"/>
        <path d="M50 64 C42 60, 36 54, 32 46"/>
        <path d="M50 54 C42 48, 36 40, 34 32"/>

        <!-- Праві жилки -->
        <path d="M50 74 C57 70, 62 66, 66 60"/>
        <path d="M50 64 C58 60, 64 54, 68 46"/>
        <path d="M50 54 C58 48, 64 40, 66 32"/>
    </g>
</svg>