<svg width="100" height="100" viewBox="0 0 100 100" xmlns="http://www.w3.org/2000/svg">
    <!-- Пляшка рому -->
    <path d="M40,15 L60,15 L65,25 L65,75 Q65,85 50,85 Q35,85 35,75 L35,25 Z" fill="#8B4513" opacity="0.8"/>

    <!-- Світліша передня частина -->
    <path d="M42,20 L58,20 L60,30 L60,70 Q60,78 50,78 Q40,78 40,70 L40,30 Z" fill="#A0522D" opacity="0.9"/>

    <!-- Горловина -->
    <rect x="45" y="10" width="10" height="10" fill="#654321"/>

    <!-- Дерев'яна пробка -->
    <rect x="47" y="5" width="6" height="5" rx="1" fill="#8B4513"/>

    <!-- Етикетка -->
    <rect x="35" y="35" width="30" height="25" rx="3" fill="#DEB887"/>

    <!-- Назва "RUM" -->
    <text x="50" y="48" text-anchor="middle" font-family="'Times New Roman', serif" font-size="12" font-weight="bold" fill="#8B4513">
        RUM
    </text>

    <!-- Підпис -->
    <text x="50" y="58" text-anchor="middle" font-family="Arial, sans-serif" font-size="5" fill="#654321">
        CARIBBEAN
    </text>

    <!-- Декоративні смужки на пляшці -->
    <path d="M45,25 L55,25" stroke="#D2691E" stroke-width="2" stroke-linecap="round"/>
    <path d="M45,70 L55,70" stroke="#D2691E" stroke-width="2" stroke-linecap="round"/>


    <!-- Блиск на склі -->
    <ellipse cx="55" cy="30" rx="8" ry="3" fill="#FFFFFF" opacity="0.3" transform="rotate(30 55 30)"/>
</svg>