<svg width="100" height="100" viewBox="0 0 100 100" xmlns="http://www.w3.org/2000/svg">
    <!-- Пляшка TripSec -->
    <path d="M40,15 L60,15 L62,20 L62,75 Q62,85 50,85 Q38,85 38,75 L38,20 Z" fill="#FFB74D" opacity="0.9"/>

    <!-- Вміст (помаранчевий лікер) -->
    <path d="M42,20 L58,20 L60,25 L60,70 Q60,78 50,78 Q40,78 40,70 L40,25 Z" fill="#FFCC80" opacity="0.9"/>

    <!-- Горловина -->
    <rect x="45" y="10" width="10" height="10" fill="#FF9800"/>

    <!-- Ковпачок (золотий) -->
    <rect x="47" y="5" width="6" height="5" rx="1" fill="#FFD740"/>

    <!-- Етикетка -->
    <rect x="37.5" y="38" width="24" height="20" rx="3" fill="#FFF3E0"/>

    <!-- Назва "TRIPLE SEC" -->
    <text x="50" y="45" text-anchor="middle" font-family="Arial, sans-serif" font-size="6" font-weight="bold" fill="#EF6C00">
        TRIPLE
    </text>
    <text x="50" y="55" text-anchor="middle" font-family="Arial, sans-serif" font-size="6" font-weight="bold" fill="#EF6C00">
        SEC
    </text>







    <!-- Цедра на пляшці -->
    <circle cx="55" cy="30" r="1.5" fill="#FF9800"/>
    <circle cx="45" cy="40" r="1" fill="#FF9800"/>
    <circle cx="50" cy="65" r="1.5" fill="#FF9800"/>

    <!-- Блиск на склі -->
    <ellipse cx="55" cy="25" rx="8" ry="3" fill="#FFFFFF" opacity="0.3" transform="rotate(30 55 25)"/>
</svg>